<!--?xml version="1.0" encoding="UTF-8"?-->
<svg id="Layer_1" data-name="Layer 1" xmlns="http://www.w3.org/2000/svg" viewBox="0 0 3411.95 844.6" style="">
  <defs>
    <style>
      .cls-1 {
        fill: none;
        stroke: #000;
        stroke-miterlimit: 10;
        stroke-width: 2.96px;
      }
    </style>
  </defs>
  <path class="cls-1 faKiIOHq_0" d="m1023.68,494.64c-5.35,6.92-8.41,8.89-15.88,13.44-3.01,1.83-6.23,3.51-8.43,6.26-3.56,4.43-3.71,10.61-3.7,16.29.18,85.21.36,170.42.54,255.62,0,1.03-.02,2.13-.61,2.97-.92,1.3-2.77,1.41-4.36,1.41-14.48-.07-28.95-.13-43.43-.2"></path>
  <path class="cls-1 faKiIOHq_1" d="m2291.73,770.66c57.06-.07,114.13-.66,171.18-1.78-1.63-34.9-1.45-69.89.53-104.77,1.17-20.64,2.97-41.28,2.9-61.95-.11-33.67-5.18-67.44-1.45-100.9-57.59-1.09-115.21-.91-172.79.56-3.17,68.17-2.51,135.74.22,203.93.83,20.78,1.68,44.24-.59,64.92"></path>
  <path class="cls-1 faKiIOHq_2" d="m3371.68,788.41c-36.37-.31-239.91,3.79-276.28,3.48-5.11-.04-10.25-.09-15.3.66-4.83.71-9.64,2.14-14.49,1.63-.49-.05-.99-.13-1.41-.4-1.28-.84-.87-2.79-.33-4.22,5.95-15.73,10.4-32.03,13.29-48.6,10.02-44.55,2.89-96.49-11.67-139.52-14.18-41.91-40.42-79.67-74.75-107.58-3.31-2.69-6.79-5.4-8.82-9.15-1.87-3.46-2.34-7.49-2.77-11.4-1.78-16.18-3.57-32.36-5.35-48.54-3.09,5.94-3.09,12.95-3.02,19.65.42,39.45.84,78.9,1.26,118.36.01,1.17.01,2.4-.56,3.43-2.41,4.33-9.76-.4-13.93,2.28-.45,3.73-.26,7.55.55,11.22,4.32-.35,8.64-.69,12.97-1.04.99-.08,2.06-.13,2.87.44,1.13.8,1.21,2.41,1.19,3.79-1.23,67.77-2.47,135.54-3.7,203.32-.05,2.72-.27,5.82-2.4,7.52-6.56,1.98-13.51-.36-20.34-.88-22.72-1.74-44.94-2.17-67.28,2.31-24.84,1.57-49.93-9.02-74.23-3.65-.85.19-1.81.37-2.52-.11-.82-.56-.92-1.71-.94-2.7-.46-29.44-.23-58.89.68-88.31-2.08.24-3.68.51-5.76.75-.47.06-1.04.07-1.32-.32-.16-.23-.17-.53-.17-.82.25-27.9-.37-55.57-.12-83.47-2,.01-4,.03-6,.04-.37,0-.77-.01-1.04-.26-.25-.24-.3-.63-.32-.98-1.69-34.83.31-66.34.31-103.66-2.83-.09-3.32.45-6.15.35-.31-.01-.67-.04-.85-.29-.13-.18-.14-.41-.14-.63-.04-42.52,1.3-85.3,2.44-127.8-2.75.31-5.57.09-8.24-.63-1.17-62.32-3.43-125.77-1.17-188.75-1.68.02-3.37.03-5.05.05-.36,0-.74,0-1.02-.22-.43-.32-.43-.95-.39-1.49,2.13-30.95.68-61.41,1.38-92.75.2-8.96.41-18.15.34-27.15,0-.55-.11-1.18-.57-1.49-.27-.18-.62-.2-.94-.22-1.6-.08-3.2-.16-4.81-.24-.33-.02-.7-.02-.95.2-.28.24-.3.66-.3,1.03-.26,40.59-.72,82.18-.98,122.77l-4.54.22c-.77,1.59-.5,4.1-.45,5.87.42,15.11.85,30.23,1.27,45.34l-4.7.8c-.94,1.35-.53,3.04-.53,4.69-.12,19.85-.24,39.7-.35,59.55-.04,7.17-.46,15-1.52,21.19-1.55-.14-4.96.17-6.62.36-.76.09-1.65-.1-2.17.47-.34.37-.43.91-.5,1.41-.89,6.94-.51,13.97-.18,20.96,1.81,38.34,2.05,76.74,2.3,115.12,0,.51-.02,1.09-.4,1.44-.35.32-.87.34-1.35.33l-6.53-.08c-1.1,18.53-1.27,91.81-.83,111.02-2.96.37-5.91.75-8.87,1.12.6,27.38,1.2,54.76,1.8,82.14.06,2.88-.26,6.15-2.08,6.75-2.04.68-5.76-.35-7.41,1.03-1.06.88-1.09,2.46-1.05,3.84,1.32,37.5-.75,76.5.57,114-8.57-.98-17.19-1.96-25.79-1.3-9.36.72-18.51,3.39-27.89,3.86-8.21.42-16.4-.85-24.59-1.54-8.37-.7-16.79-.79-25.19-.46-3.17.13-6.38-.37-8.29-2.91-.35-68.87.93-138.18.58-207.04,3.28,4.68,7.79,11.67,10.15,16.87,4.4-4.91,7.46-11.71,5.76-18.09-1.69-6.38-10.56-6.62-15.29-7.6,9.95.57,19.93.71,29.89.41,1.59-4.83-2.23-11.21-6.88-13.27-4.65-2.06-9.75-3.29-14.8-2.7-7.88.91-14.66,4.66-15.49,12.54-.05-5.19-5.84-9.94-11.85-10.69-6.01-.76-11.78,2.3-17,5.37-1.96,1.15-4.21,3.02-3.54,5.19,10.27,1.55,20.47,3.59,30.54,6.1-5.51.43-10.93,3.46-13.51,8.34-2.59,4.88-1.81,11.54,2.33,15.19.58.51,1.26.98,2.03,1.05,1.69.15,2.89-1.54,3.71-3.02,3.02-5.43,6.05-10.87,9.07-16.3-1.31,67.02-.6,137.33-1.91,204.35-.09,4.84-1.93,4.61-5.09,8.27-39.23-3.41-78.28-1.62-117.44,2.56-.27-2.29,2.88-3.19,4.37-4.96,1.24-1.48,1.24-3.6,1.18-5.53-3-100.16,7.04-200.48,1.83-300.55-.07-1.42-.19-2.95-1.09-4.05-.9-1.11-2.07-1.71-3.77-1.55-70.92-1.07-141.84-2.13-212.76-3.2.59,101.48,1.17,202.96,1.76,304.44,4.69-.4,9.51,1.05,13.2,3.95-4.95,6.29-17.09,5.93-28.23,5.81-15.13.15-30.26.11-45.39-.12-3.62-.05-7.76-.37-9.96-3.24-1.7-2.22-1.66-5.28-1.56-8.08,1.16-32.3-.02-64.68-3.53-96.81,4.75,6.04,9.5,12.07,14.25,18.11,5.11-3.78,7.26-11.1,5.01-17.04-2.26-5.94-8.72-9.99-15.05-9.43,7.8-.69,15.6-1.38,23.39-2.07-1.09-3.85-2.6-7.68-5.24-10.68s-6.58-5.09-10.56-4.68c-3.65.37-6.86,2.76-9.02,5.73-2.16,2.97-3.41,6.49-4.53,9.98-1.35-5.43-3.04-11.35-7.67-14.49-5.27-3.58-12.36-2.23-18.41-.25-4.1,1.34-8.8,3.74-9.15,8.04-.08,1.01.17,2.15,1.02,2.69.69.44,1.58.37,2.41.31,9.83-.83,19.86.77,28.95,4.61-6.12.09-13.18.64-16.73,5.63-3.25,4.57-2.05,10.82-.58,16.24.87,3.22,1.9,6.61,4.41,8.8,3.41-7.94,7.87-15.42,13.22-22.2.26,24.16.52,48.33.78,72.49.11,10.03.21,20.1-1.07,30.06-.25,1.94-.58,3.94-1.67,5.57s-3.13,2.77-5.01,2.22c-7.76-3.44-21.78,1.29-30.26,1.7-8.48.41-19.08-5.05-17.56-13.4-5.2.14-10.41-.45-15.45-1.73,3.99-5.55-3.78-12.06-10.32-14.09-19.4-6.01-40.19-7.44-60.23-4.13-6.69,1.1-13.81,2.68-20.03,0-8.2-3.54-11.76-13.04-14.23-21.63-17.19-59.71-22.52-122.1-27.77-184.01-8.09.15-16.18.29-24.27.44-2.08.04-4.29.04-6.06-1.04-1.97-1.2-2.97-3.46-3.83-5.6-14.87-37.14-19.22-78.42-12.4-117.84.83-4.82,1.83-9.76.85-14.55s-4.53-9.44-9.39-10c.48-2.4.81-4.09,1.29-6.49,8.03,1.66,13.51-.48,14.38-6.61-19.51-.62-39.04-.62-58.54.02,2.69,6.18,9.76,10.13,16.43,9.17.44,2.47-.02,5.08-1.26,7.26-20.46-.25-40.92-.49-61.37-.74,1.12,44.28,9.68,88.37,25.23,129.85,8.16,21.78,18.26,42.96,23.68,65.58,3.63,15.15,5.1,30.73,6.56,46.25,4.21,44.74,8.43,89.6,7.4,134.52-.05,2.11-.17,4.4-1.54,6-1.75,2.07-4.83,2.23-7.53,2.23-28.12.02-56.24.04-84.36.05-25.18-.11-175.57-1.15-200.74-.99-2.64.02-4.99-.13-7.27-1.47-1.19-61.81,5.64-124.25.26-185.84-.65-7.4-.52-15.67-.88-22.63,3.5,7.15,7.13,14.23,10.9,21.24,5.14-4.28,7-12.05,4.36-18.2-2.64-6.14-9.57-10.14-16.21-9.35,8.96-1.91,18.18-2.54,27.32-1.88-2.2-6.26-7.24-11.45-13.42-13.84-1.83-.71-3.85-.57-5.79-.31-3.67.5-7.34,3.25-9.08,6.53-1.73,3.28-1.1,2.98-2.81,6.27-1.17-5.81-5.02-8.09-10.58-10.14-5.56-2.05-13.32-.2-17.98,3.46-1.31,1.03-2.56,2.43-2.55,4.1,0,3.31,4.34,4.49,7.65,4.66,6.37.33,11.3.69,17.68,1.02-5.62.92-9.24,4.67-11.73,9.8-2.48,5.12-2.32,11.45.44,16.43.45.82,1,1.63,1.82,2.09,2.87,1.62,5.82-1.97,7.17-4.98,2.6-5.76,5.2-11.52,7.79-17.29,3.83,69.46,1.2,139.1-1.43,208.61-.04.95-.14,2.03-.89,2.61-.56.43-1.33.45-2.05.45-7.89-.03-15.78-.06-23.66-.09-17.1-.69-36.33,1.7-53.43,1.01-.3-12.61-1.33-26.89,0-39.71.42-4.07,10.4-.29,10.61-4.36,1.84-35.26-1.14-74.78-1.07-108.95.35-162.42.7-321.88,1.04-484.3-8,2.09-14.12,9.78-14.48,18.02-2.94-.77-6.13.47-8.35,2.55-2.22,2.08-3.6,4.88-4.69,7.72-1.53,3.97-1.46,6.82-1.99,11.04-1.26-1.18-4.57-.17-5.83.39-1.88.84-3.76,2.26-5.14,3.79-3.54,3.93-5.94,8.63-4.67,13.77-1.64-1-3.81-.81-5.53.06s-5.21,3.02-6.78,5.5c-3.45,5.46-3.99,9.62-4.85,16.02-5.73-2.66-12.86.13-16.87,5-4.01,4.87-4.75,12.16-5.57,18.42.2,163.41.41,326.82.61,490.24,0,2.03.13,4.34,1.71,5.61,1.56,1.26,3.96.99,5.51,2.26,1.49,1.22,1.67,3.39,1.72,5.32.23,9.47.73,18.95.09,28.41-14.34.43-30.54.37-44.8-1.13-1.27-.13-2.63-.31-3.6-1.15-1.38-1.19-1.49-3.26-1.5-5.08-.03-12.88-.06-25.77-.1-38.65,0-2.87.12-6.07,2.19-8.06,1.08-1.04,2.57-1.6,3.56-2.73,1.37-1.57,1.47-3.84,1.5-5.92,1.79-132.6-2.81-261.78-1.02-394.38-.51,3.98-6.53,9.24-11.06,7.04.54,3.32-1.22,6.9-4.18,8.5-2.96,1.6-6.92,1.11-9.4-1.17-.82,5.74-7.19,10.02-12.82,8.59-.62,8.78-11.81,14.84-19.5,10.56.73,6.29-6.31,12.09-12.34,10.17.32,3.83-1.71,7.76-5.01,9.73s-7.72,1.88-10.94-.23c.51,3.46-1.15,7.15-4.09,9.06-3.2,2.08-7.73,1.92-10.72-.5,1.16,111.61,2.32,223.22,3.48,334.84.02,1.76.18,3.8,1.64,4.78,1.21.82,2.89.56,4.16,1.28,1.66.94,2.05,3.11,2.24,5.01,1.62,15.82,2.03,31.77,1.22,47.65-56.37,7.84-168.46,6.35-225.34,4.59-9.14-.76-18.29-1.52-27.43-2.27-1.5-.12-3.11-.3-4.22-1.32-1.57-1.45-1.44-3.93-1.2-6.06,6.44-56.11,5.32-112.79,4.19-169.26-.9-44.94-1.97-90.85-17.43-133.06-3.74,3.76-7.48,7.52-11.22,11.29-.51-3.34-1.94-6.53-4.09-9.13-3.68,3.19-7.36,6.37-11.04,9.56.52-45.72-8.29-91.53-25.73-133.8-2.38,2.05-4.75,4.09-7.13,6.14-.88-2.93-1.75-5.85-2.63-8.78-9.5,5.31-18.79,10.98-27.84,17.02-2.75,1.84-5.57,3.78-7.33,6.58-2.53,4.01-2.51,9.07-2.42,13.81.61,32.38.57,64.77-.11,97.14-11.37-11.55-22.74-23.1-34.11-34.65-2.99,2.55-5.14,6.07-6.06,9.89-5.57-1.88-6.98-9.19-6.07-15,.91-5.8,3.17-11.77,1.41-17.37-1.32-4.19-4.68-7.37-7.91-10.35-15.09-13.93-30.19-27.86-45.28-41.79-1.7,3.68-3.4,7.36-5.09,11.05-3.42-3.76-7.76-6.67-12.54-8.41-20.44,121.61-39.24,247.44-9.32,367.08,2.13,8.53,4.53,17.28,3.28,25.99-1.25,8.7-7.1,14.15-15.79,15.46-39.96.02-79.92.05-119.88.07-3.04,0-6.43-.14-8.54-2.32-1.75-1.8-2.1-4.49-2.37-6.99-1.49-13.86-3.7-31.56-5.2-45.42-.31-2.87.7-3.31,2.6-4.2,2.97-1.39,6.4-1.19,9.68-1.2,7.82-.03,12.96-9.86,7.03-14.95-9-.61-14.77-.29-20.44,6.73,3.84-9.87,9.83-14.48,20.41-14.42.46-9.76-13.85-14.24-21.99-8.85s-8.26,14-9.05,20.44c-1.85-6.78-7.09-10.56-14.06-13.36s-17.1-.35-21.77,5.54c10,4.93,20.37,9.11,30.99,12.49-9.61-1.22-17.81,11.18-12.93,19.55,5.41-7.05,15.87-14.5,21.78-7.88,2.42,2.71,2.58,6.7,2.62,10.34.1,11.09.2,22.19.29,33.28.02,1.96,0,4.06-1.1,5.69-1.65,2.45-5.02,2.9-7.97,3.1-46.12,3.2-88.9,3.24-135.02.17,29.07-13.75,49.97-42.68,55.76-74.32s-2.7-61.2-21.73-87.12c-9.34-12.72-25.66-23.41-40.34-30.17-17.07-7.87-46.09-12.3-64.73-9.87-40.24,5.24-70.24,22.39-90.41,57.6-11.68,20.39-14.92,46.53-10.2,69.55s8.66,33.19,23.9,51.06c10.58,12.41,34.91,21.16,32.52,22.16-1.23.52-25.83.32-27.16.35-114.67,2.79-230.76,5.02-345.43,7.81"></path>
  <path class="cls-1 faKiIOHq_3" d="m950.5,492.75c-4.39,99.17-4.06,198.42-2.69,297.68"></path>
<style data-made-with="vivus-instant">.faKiIOHq_0{stroke-dasharray:356 358;stroke-dashoffset:357;animation:faKiIOHq_draw_0 7600ms linear 0ms infinite,faKiIOHq_fade 7600ms linear 0ms infinite;}.faKiIOHq_1{stroke-dasharray:881 883;stroke-dashoffset:882;animation:faKiIOHq_draw_1 7600ms linear 0ms infinite,faKiIOHq_fade 7600ms linear 0ms infinite;}.faKiIOHq_2{stroke-dasharray:12895 12897;stroke-dashoffset:12896;animation:faKiIOHq_draw_2 7600ms linear 0ms infinite,faKiIOHq_fade 7600ms linear 0ms infinite;}.faKiIOHq_3{stroke-dasharray:298 300;stroke-dashoffset:299;animation:faKiIOHq_draw_3 7600ms linear 0ms infinite,faKiIOHq_fade 7600ms linear 0ms infinite;}@keyframes faKiIOHq_draw{100%{stroke-dashoffset:0;}}@keyframes faKiIOHq_fade{0%{stroke-opacity:1;}89.47368421052632%{stroke-opacity:1;}100%{stroke-opacity:0;}}@keyframes faKiIOHq_draw_0{10.526315789473683%{stroke-dashoffset: 357}36.84210526315789%{ stroke-dashoffset: 0;}100%{ stroke-dashoffset: 0;}}@keyframes faKiIOHq_draw_1{14.912280701754385%{stroke-dashoffset: 882}41.22807017543859%{ stroke-dashoffset: 0;}100%{ stroke-dashoffset: 0;}}@keyframes faKiIOHq_draw_2{19.298245614035086%{stroke-dashoffset: 12896}45.614035087719294%{ stroke-dashoffset: 0;}100%{ stroke-dashoffset: 0;}}@keyframes faKiIOHq_draw_3{23.684210526315788%{stroke-dashoffset: 299}50%{ stroke-dashoffset: 0;}100%{ stroke-dashoffset: 0;}}</style></svg>